<svg xmlns="http://www.w3.org/2000/svg">
     <symbol id="linkedin">
          <circle cx="16" cy="16" r="15.75" stroke="#0082C6" stroke-width=".5"/><path d="M12.8 21.33h-2.67v-8h2.67v8zm-1.33-9.06a1.33 1.33 0 110-2.67 1.33 1.33 0 010 2.67zm10.93 9.06h-2.56v-3.89c0-.93-.02-2.12-1.34-2.12-1.33 0-1.54 1-1.54 2.05v3.96H14.4v-8h2.46v1.1h.04a2.71 2.71 0 012.42-1.3c2.6 0 3.08 1.66 3.08 3.81v4.4z" fill="#0082C6"/>   </symbol>
     <symbol id="snob">
          <circle cx="16" cy="16" r="15.75" stroke="#0082C6" stroke-width=".5"/><g clip-path="url(#clip0)" fill="#0082C6"><path d="M11.54 9.14C9.36 9.61 8 10.83 8 12.33c0 1.49 1.77 2.33 2.97 1.4.43-.34.61-.73.68-1.38 0-.61-.23-1.14-.6-1.42-.11-.11-.2-.23-.2-.26.03-.03.36-.13.74-.22 2.2-.54 4.32 1.02 4.96 3.63.6 2.5 0 5.83-2.53 7.01-1.24.58-3.17.49-4.68-.22a4.2 4.2 0 00-.7-.28c-.2.43-.35.92-.52 1.38l.52.2c2.02.82 4.78.91 6.8.25 5.96-1.98 5.88-11.02 0-13.03a7.57 7.57 0 00-3.9-.25z"/><circle cx="22.28" cy="21.17" r="1.72"/></g><defs><clipPath id="clip0"><path fill="#fff" transform="translate(8 9)" d="M0 0h16v14H0z"/></clipPath></defs>
     </symbol>
     <symbol id="facebook">
          <circle cx="16" cy="16" r="15.75" stroke="#0082C6" stroke-width=".5"/><path d="M18.08 11.55h1.25V9.43c-.6-.07-1.21-.1-1.82-.1-1.82 0-3.06 1.11-3.06 3.14v1.74h-2.04v2.38h2.04v6.08h2.46v-6.08h2.04l.3-2.38h-2.34V12.7c0-.7.18-1.15 1.17-1.15z" fill="#0082C6"/>   </symbol>
     <symbol id="instagram">
          <circle cx="16" cy="16" r="15.75" stroke="#0082C6" stroke-width=".5"/><path d="M19.5 23.5h-7a4 4 0 01-4-4v-7a4 4 0 014-4h7a4 4 0 014 4v7a4 4 0 01-4 4z" stroke="#0082C6" stroke-miterlimit="10"/><path d="M16 19.5a3.5 3.5 0 100-7 3.5 3.5 0 000 7zM20.5 12a.5.5 0 100-1 .5.5 0 000 1z" stroke="#0082C6" stroke-miterlimit="10"/></symbol>
     <symbol id="twitter">
          <circle cx="16" cy="16" r="15.75" stroke="#0082C6" stroke-width=".5"/><path d="M22.67 11.87c-.5.21-1.03.36-1.58.42.58-.34 1-.88 1.21-1.51-.54.32-1.13.55-1.74.67a2.73 2.73 0 00-4.67 2.49 7.76 7.76 0 01-5.63-2.86 2.77 2.77 0 00-.05 2.67c.22.4.52.73.9.98a2.7 2.7 0 01-1.24-.34v.04a2.73 2.73 0 002.2 2.66 2.62 2.62 0 01-1.25.07 2.74 2.74 0 002.55 1.9 5.48 5.48 0 01-4.04 1.13c1.25.8 2.7 1.23 4.2 1.23a7.73 7.73 0 007.8-7.79v-.35c.53-.39.98-.87 1.34-1.41z" fill="#0082C6"/>
     </symbol>
</svg>